<?xml version="1.0" standalone="no"?>
<!DOCTYPE svg PUBLIC "-//W3C//DTD SVG 20010904//EN"
 "http://www.w3.org/TR/2001/REC-SVG-20010904/DTD/svg10.dtd">
<svg version="1.0" xmlns="http://www.w3.org/2000/svg"
 width="24px" height="24px" viewBox="0 0 24 24"
 preserveAspectRatio="xMidYMid meet">
<metadata>
Created by potrace 1.15, written by Peter Selinger 2001-2017
</metadata>
<g transform="translate(0.000000,24.000000) scale(0.00200000,-0.00200000)"
fill="#000000" stroke="none">
<path d="M11380 12785 c-156 -32 -268 -93 -380 -205 -82 -82 -95 -103 -357
-550 -150 -256 -641 -1092 -1091 -1859 l-818 -1393 -1629 -988 c-1504 -911
-1636 -993 -1713 -1065 -46 -43 -103 -106 -127 -139 -54 -76 -2520 -4323
-2550 -4391 -12 -27 -28 -72 -34 -100 -17 -68 -15 -217 4 -289 40 -150 156
-297 293 -369 111 -59 162 -71 287 -71 92 0 122 5 182 26 105 37 159 72 237
152 65 67 123 164 938 1576 l868 1504 1917 1192 c2032 1263 1997 1240 2107
1383 24 31 598 1001 1276 2156 1431 2435 1393 2370 1421 2444 80 214 58 444
-62 649 -19 31 -71 94 -116 139 -70 70 -98 90 -185 132 -159 77 -310 98 -468
66z"/>
<path d="M3394 7785 c-485 -75 -852 -466 -893 -952 -44 -518 292 -990 795
-1117 161 -41 374 -39 533 5 108 30 263 106 356 176 182 136 307 314 375 533
41 136 54 232 47 363 -14 278 -126 519 -332 715 -239 227 -558 328 -881 277z"/>
<path d="M1357 1490 c-210 -26 -349 -67 -650 -189 -200 -82 -471 -141 -648
-141 l-59 0 0 -580 0 -580 45 0 c73 0 231 19 339 41 123 26 266 73 419 139
296 127 592 180 891 159 228 -16 412 -62 655 -164 223 -93 404 -143 603 -164
335 -37 613 14 1033 186 276 114 561 162 845 142 246 -17 408 -59 705 -184
138 -58 307 -108 450 -131 147 -25 449 -25 585 -1 191 35 268 60 595 192 204
84 436 126 680 126 295 0 480 -42 855 -195 222 -91 408 -132 640 -143 291 -13
559 42 873 177 496 213 1004 219 1492 17 196 -80 323 -123 445 -150 118 -26
274 -47 355 -47 l45 0 0 578 0 579 -107 6 c-227 13 -387 54 -678 170 -325 130
-473 161 -780 162 -321 0 -478 -35 -855 -189 -264 -108 -427 -140 -715 -140
-289 0 -454 31 -710 137 -359 147 -576 197 -860 197 -274 0 -509 -52 -810
-178 -296 -124 -539 -170 -830 -159 -247 10 -408 47 -695 161 -209 84 -274
105 -410 134 -157 34 -292 45 -460 39 -260 -10 -423 -47 -715 -164 -311 -124
-463 -160 -720 -170 -297 -11 -533 36 -855 172 -151 63 -321 115 -460 140
-109 19 -428 28 -533 15z"/>
</g>
.3"/>
</svg>
